{
  "asset": {
    "version": "2.0",
    "generator": "Minecraft Character Generator"
  },
  "scene": 0,
  "scenes": [
    {
      "nodes": [
        0
      ]
    }
  ],
  "nodes": [
    {
      "name": "Root",
      "mesh": 0,
      "skin": 0,
      "children": [
        1
      ]
    },
    {
      "name": "hip",
      "translation": [
        0.0,
        0.0,
        0.0
      ],
      "children": [
        2,
        6,
        7
      ]
    },
    {
      "name": "torso",
      "translation": [
        0.0,
        0.36,
        0.0
      ],
      "children": [
        3,
        4,
        5
      ]
    },
    {
      "name": "head",
      "translation": [
        0.0,
        0.36,
        0.0
      ]
    },
    {
      "name": "right_arm",
      "translation": [
        -0.135,
        0.3,
        0.0
      ]
    },
    {
      "name": "left_arm",
      "translation": [
        0.135,
        0.3,
        0.0
      ]
    },
    {
      "name": "right_leg",
      "translation": [
        -0.06,
        0.36,
        0.0
      ]
    },
    {
      "name": "left_leg",
      "translation": [
        0.06,
        0.36,
        0.0
      ]
    }
  ],
  "meshes": [
    {
      "primitives": [
        {
          "attributes": {
            "POSITION": 0,
            "TEXCOORD_0": 1,
            "JOINTS_0": 2,
            "WEIGHTS_0": 3
          },
          "indices": 4,
          "mode": 4,
          "material": 0
        }
      ]
    }
  ],
  "skins": [
    {
      "inverseBindMatrices": 5,
      "joints": [
        1,
        2,
        3,
        4,
        5,
        6,
        7
      ]
    }
  ],
  "materials": [
    {
      "name": "MinecraftSkin",
      "pbrMetallicRoughness": {
        "baseColorTexture": {
          "index": 0
        },
        "metallicFactor": 0.0,
        "roughnessFactor": 1.0
      },
      "alphaMode": "BLEND"
    }
  ],
  "textures": [
    {
      "source": 0
    }
  ],
  "images": [
    {
      "name": "skin",
      "uri": "pink-smoothie.png"
    }
  ],
  "animations": [
    {
      "name": "Walk",
      "samplers": [
        {
          "input": 6,
          "output": 7,
          "interpolation": "LINEAR"
        },
        {
          "input": 6,
          "output": 8,
          "interpolation": "LINEAR"
        },
        {
          "input": 6,
          "output": 9,
          "interpolation": "LINEAR"
        },
        {
          "input": 6,
          "output": 10,
          "interpolation": "LINEAR"
        },
        {
          "input": 6,
          "output": 11,
          "interpolation": "LINEAR"
        }
      ],
      "channels": [
        {
          "sampler": 0,
          "target": {
            "node": 1,
            "path": "translation"
          }
        },
        {
          "sampler": 1,
          "target": {
            "node": 6,
            "path": "rotation"
          }
        },
        {
          "sampler": 2,
          "target": {
            "node": 7,
            "path": "rotation"
          }
        },
        {
          "sampler": 3,
          "target": {
            "node": 4,
            "path": "rotation"
          }
        },
        {
          "sampler": 4,
          "target": {
            "node": 5,
            "path": "rotation"
          }
        }
      ]
    }
  ],
  "accessors": [
    {
      "bufferView": 0,
      "componentType": 5126,
      "count": 440,
      "type": "VEC3",
      "max": [
        0.2098499983549118,
        0.959850013256073,
        0.13199999928474426
      ],
      "min": [
        -0.2098499983549118,
        0.0001500000071246177,
        -0.13199999928474426
      ]
    },
    {
      "bufferView": 1,
      "componentType": 5126,
      "count": 440,
      "type": "VEC2"
    },
    {
      "bufferView": 2,
      "componentType": 5123,
      "count": 440,
      "type": "VEC4"
    },
    {
      "bufferView": 3,
      "componentType": 5126,
      "count": 440,
      "type": "VEC4"
    },
    {
      "bufferView": 4,
      "componentType": 5123,
      "count": 660,
      "type": "SCALAR"
    },
    {
      "bufferView": 5,
      "componentType": 5126,
      "count": 7,
      "type": "MAT4"
    },
    {
      "bufferView": 6,
      "componentType": 5126,
      "count": 5,
      "type": "SCALAR",
      "max": [
        2.0
      ],
      "min": [
        0.0
      ]
    },
    {
      "bufferView": 7,
      "componentType": 5126,
      "count": 5,
      "type": "VEC3"
    },
    {
      "bufferView": 8,
      "componentType": 5126,
      "count": 5,
      "type": "VEC4"
    },
    {
      "bufferView": 9,
      "componentType": 5126,
      "count": 5,
      "type": "VEC4"
    },
    {
      "bufferView": 10,
      "componentType": 5126,
      "count": 5,
      "type": "VEC4"
    },
    {
      "bufferView": 11,
      "componentType": 5126,
      "count": 5,
      "type": "VEC4"
    }
  ],
  "bufferViews": [
    {
      "buffer": 0,
      "byteOffset": 0,
      "byteLength": 5280,
      "target": 34962
    },
    {
      "buffer": 0,
      "byteOffset": 5280,
      "byteLength": 3520,
      "target": 34962
    },
    {
      "buffer": 0,
      "byteOffset": 8800,
      "byteLength": 3520,
      "target": 34962
    },
    {
      "buffer": 0,
      "byteOffset": 12320,
      "byteLength": 7040,
      "target": 34962
    },
    {
      "buffer": 0,
      "byteOffset": 19360,
      "byteLength": 1320,
      "target": 34963
    },
    {
      "buffer": 0,
      "byteOffset": 20680,
      "byteLength": 448
    },
    {
      "buffer": 0,
      "byteOffset": 21128,
      "byteLength": 20
    },
    {
      "buffer": 0,
      "byteOffset": 21148,
      "byteLength": 60
    },
    {
      "buffer": 0,
      "byteOffset": 21208,
      "byteLength": 80
    },
    {
      "buffer": 0,
      "byteOffset": 21288,
      "byteLength": 80
    },
    {
      "buffer": 0,
      "byteOffset": 21368,
      "byteLength": 80
    },
    {
      "buffer": 0,
      "byteOffset": 21448,
      "byteLength": 80
    }
  ],
  "buffers": [
    {
      "byteLength": 21528,
      "uri": "data:application/octet-stream;base64,"
    }
  ]
}