{
  "asset": {
    "version": "2.0",
    "generator": "Minecraft Character Generator"
  },
  "scene": 0,
  "scenes": [
    {
      "nodes": [
        0
      ]
    }
  ],
  "nodes": [
    {
      "name": "Root",
      "mesh": 0,
      "skin": 0,
      "children": [
        1
      ]
    },
    {
      "name": "hip",
      "translation": [
        0.0,
        0.0,
        0.0
      ],
      "children": [
        2,
        6,
        7
      ]
    },
    {
      "name": "torso",
      "translation": [
        0.0,
        0.72,
        0.0
      ],
      "children": [
        3,
        4,
        5
      ]
    },
    {
      "name": "head",
      "translation": [
        0.0,
        0.72,
        0.0
      ]
    },
    {
      "name": "right_arm",
      "translation": [
        -0.27,
        0.6,
        0.0
      ]
    },
    {
      "name": "left_arm",
      "translation": [
        0.27,
        0.6,
        0.0
      ]
    },
    {
      "name": "right_leg",
      "translation": [
        -0.12,
        0.72,
        0.0
      ]
    },
    {
      "name": "left_leg",
      "translation": [
        0.12,
        0.72,
        0.0
      ]
    }
  ],
  "meshes": [
    {
      "primitives": [
        {
          "attributes": {
            "POSITION": 0,
            "TEXCOORD_0": 1,
            "JOINTS_0": 2,
            "WEIGHTS_0": 3
          },
          "indices": 4,
          "mode": 4,
          "material": 0
        }
      ]
    }
  ],
  "skins": [
    {
      "inverseBindMatrices": 5,
      "joints": [
        1,
        2,
        3,
        4,
        5,
        6,
        7
      ]
    }
  ],
  "materials": [
    {
      "name": "MinecraftSkin",
      "pbrMetallicRoughness": {
        "baseColorTexture": {
          "index": 0
        },
        "metallicFactor": 0.0,
        "roughnessFactor": 1.0
      },
      "alphaMode": "BLEND"
    }
  ],
  "textures": [
    {
      "source": 0
    }
  ],
  "images": [
    {
      "name": "skin",
      "uri": "pink-smoothie.png"
    }
  ],
  "animations": [
    {
      "name": "Walk",
      "samplers": [
        {
          "input": 6,
          "output": 7,
          "interpolation": "LINEAR"
        },
        {
          "input": 6,
          "output": 8,
          "interpolation": "LINEAR"
        },
        {
          "input": 6,
          "output": 9,
          "interpolation": "LINEAR"
        },
        {
          "input": 6,
          "output": 10,
          "interpolation": "LINEAR"
        },
        {
          "input": 6,
          "output": 11,
          "interpolation": "LINEAR"
        },
        {
          "input": 6,
          "output": 12,
          "interpolation": "LINEAR"
        }
      ],
      "channels": [
        {
          "sampler": 0,
          "target": {
            "node": 1,
            "path": "translation"
          }
        },
        {
          "sampler": 1,
          "target": {
            "node": 3,
            "path": "rotation"
          }
        },
        {
          "sampler": 2,
          "target": {
            "node": 6,
            "path": "rotation"
          }
        },
        {
          "sampler": 3,
          "target": {
            "node": 7,
            "path": "rotation"
          }
        },
        {
          "sampler": 4,
          "target": {
            "node": 4,
            "path": "rotation"
          }
        },
        {
          "sampler": 5,
          "target": {
            "node": 5,
            "path": "rotation"
          }
        }
      ]
    },
    {
      "name": "Idle",
      "samplers": [
        {
          "input": 13,
          "output": 14,
          "interpolation": "CUBICSPLINE"
        },
        {
          "input": 13,
          "output": 15,
          "interpolation": "CUBICSPLINE"
        },
        {
          "input": 13,
          "output": 16,
          "interpolation": "CUBICSPLINE"
        },
        {
          "input": 13,
          "output": 17,
          "interpolation": "CUBICSPLINE"
        },
        {
          "input": 13,
          "output": 18,
          "interpolation": "CUBICSPLINE"
        },
        {
          "input": 13,
          "output": 19,
          "interpolation": "CUBICSPLINE"
        }
      ],
      "channels": [
        {
          "sampler": 0,
          "target": {
            "node": 1,
            "path": "translation"
          }
        },
        {
          "sampler": 1,
          "target": {
            "node": 3,
            "path": "rotation"
          }
        },
        {
          "sampler": 2,
          "target": {
            "node": 6,
            "path": "rotation"
          }
        },
        {
          "sampler": 3,
          "target": {
            "node": 7,
            "path": "rotation"
          }
        },
        {
          "sampler": 4,
          "target": {
            "node": 4,
            "path": "rotation"
          }
        },
        {
          "sampler": 5,
          "target": {
            "node": 5,
            "path": "rotation"
          }
        }
      ]
    },
    {
      "name": "Run",
      "samplers": [
        {
          "input": 20,
          "output": 21,
          "interpolation": "LINEAR"
        },
        {
          "input": 20,
          "output": 22,
          "interpolation": "LINEAR"
        },
        {
          "input": 20,
          "output": 23,
          "interpolation": "LINEAR"
        },
        {
          "input": 20,
          "output": 24,
          "interpolation": "LINEAR"
        },
        {
          "input": 20,
          "output": 25,
          "interpolation": "LINEAR"
        },
        {
          "input": 20,
          "output": 26,
          "interpolation": "LINEAR"
        }
      ],
      "channels": [
        {
          "sampler": 0,
          "target": {
            "node": 1,
            "path": "translation"
          }
        },
        {
          "sampler": 1,
          "target": {
            "node": 3,
            "path": "rotation"
          }
        },
        {
          "sampler": 2,
          "target": {
            "node": 6,
            "path": "rotation"
          }
        },
        {
          "sampler": 3,
          "target": {
            "node": 7,
            "path": "rotation"
          }
        },
        {
          "sampler": 4,
          "target": {
            "node": 4,
            "path": "rotation"
          }
        },
        {
          "sampler": 5,
          "target": {
            "node": 5,
            "path": "rotation"
          }
        }
      ]
    },
    {
      "name": "Place",
      "samplers": [
        {
          "input": 27,
          "output": 28,
          "interpolation": "LINEAR"
        },
        {
          "input": 27,
          "output": 29,
          "interpolation": "LINEAR"
        },
        {
          "input": 27,
          "output": 30,
          "interpolation": "LINEAR"
        },
        {
          "input": 27,
          "output": 31,
          "interpolation": "LINEAR"
        },
        {
          "input": 27,
          "output": 32,
          "interpolation": "LINEAR"
        },
        {
          "input": 27,
          "output": 33,
          "interpolation": "LINEAR"
        }
      ],
      "channels": [
        {
          "sampler": 0,
          "target": {
            "node": 1,
            "path": "translation"
          }
        },
        {
          "sampler": 1,
          "target": {
            "node": 3,
            "path": "rotation"
          }
        },
        {
          "sampler": 2,
          "target": {
            "node": 6,
            "path": "rotation"
          }
        },
        {
          "sampler": 3,
          "target": {
            "node": 7,
            "path": "rotation"
          }
        },
        {
          "sampler": 4,
          "target": {
            "node": 4,
            "path": "rotation"
          }
        },
        {
          "sampler": 5,
          "target": {
            "node": 5,
            "path": "rotation"
          }
        }
      ]
    }
  ],
  "accessors": [
    {
      "bufferView": 0,
      "componentType": 5126,
      "count": 440,
      "type": "VEC3",
      "max": [
        0.4196999967098236,
        1.919700026512146,
        0.2639999985694885
      ],
      "min": [
        -0.4196999967098236,
        0.0003000000142492354,
        -0.2639999985694885
      ]
    },
    {
      "bufferView": 1,
      "componentType": 5126,
      "count": 440,
      "type": "VEC2"
    },
    {
      "bufferView": 2,
      "componentType": 5123,
      "count": 440,
      "type": "VEC4"
    },
    {
      "bufferView": 3,
      "componentType": 5126,
      "count": 440,
      "type": "VEC4"
    },
    {
      "bufferView": 4,
      "componentType": 5123,
      "count": 660,
      "type": "SCALAR"
    },
    {
      "bufferView": 5,
      "componentType": 5126,
      "count": 7,
      "type": "MAT4"
    },
    {
      "bufferView": 6,
      "componentType": 5126,
      "count": 5,
      "type": "SCALAR",
      "max": [
        2.0
      ],
      "min": [
        0.0
      ]
    },
    {
      "bufferView": 7,
      "componentType": 5126,
      "count": 5,
      "type": "VEC3"
    },
    {
      "bufferView": 8,
      "componentType": 5126,
      "count": 5,
      "type": "VEC4"
    },
    {
      "bufferView": 9,
      "componentType": 5126,
      "count": 5,
      "type": "VEC4"
    },
    {
      "bufferView": 10,
      "componentType": 5126,
      "count": 5,
      "type": "VEC4"
    },
    {
      "bufferView": 11,
      "componentType": 5126,
      "count": 5,
      "type": "VEC4"
    },
    {
      "bufferView": 12,
      "componentType": 5126,
      "count": 5,
      "type": "VEC4"
    },
    {
      "bufferView": 13,
      "componentType": 5126,
      "count": 5,
      "type": "SCALAR",
      "max": [
        10.0
      ],
      "min": [
        0.0
      ]
    },
    {
      "bufferView": 14,
      "componentType": 5126,
      "count": 15,
      "type": "VEC3"
    },
    {
      "bufferView": 15,
      "componentType": 5126,
      "count": 15,
      "type": "VEC4"
    },
    {
      "bufferView": 16,
      "componentType": 5126,
      "count": 15,
      "type": "VEC4"
    },
    {
      "bufferView": 17,
      "componentType": 5126,
      "count": 15,
      "type": "VEC4"
    },
    {
      "bufferView": 18,
      "componentType": 5126,
      "count": 15,
      "type": "VEC4"
    },
    {
      "bufferView": 19,
      "componentType": 5126,
      "count": 15,
      "type": "VEC4"
    },
    {
      "bufferView": 20,
      "componentType": 5126,
      "count": 5,
      "type": "SCALAR",
      "max": [
        2.0
      ],
      "min": [
        0.0
      ]
    },
    {
      "bufferView": 21,
      "componentType": 5126,
      "count": 5,
      "type": "VEC3"
    },
    {
      "bufferView": 22,
      "componentType": 5126,
      "count": 5,
      "type": "VEC4"
    },
    {
      "bufferView": 23,
      "componentType": 5126,
      "count": 5,
      "type": "VEC4"
    },
    {
      "bufferView": 24,
      "componentType": 5126,
      "count": 5,
      "type": "VEC4"
    },
    {
      "bufferView": 25,
      "componentType": 5126,
      "count": 5,
      "type": "VEC4"
    },
    {
      "bufferView": 26,
      "componentType": 5126,
      "count": 5,
      "type": "VEC4"
    },
    {
      "bufferView": 27,
      "componentType": 5126,
      "count": 5,
      "type": "SCALAR",
      "max": [
        0.8
      ],
      "min": [
        0.0
      ]
    },
    {
      "bufferView": 28,
      "componentType": 5126,
      "count": 5,
      "type": "VEC3"
    },
    {
      "bufferView": 29,
      "componentType": 5126,
      "count": 5,
      "type": "VEC4"
    },
    {
      "bufferView": 30,
      "componentType": 5126,
      "count": 5,
      "type": "VEC4"
    },
    {
      "bufferView": 31,
      "componentType": 5126,
      "count": 5,
      "type": "VEC4"
    },
    {
      "bufferView": 32,
      "componentType": 5126,
      "count": 5,
      "type": "VEC4"
    },
    {
      "bufferView": 33,
      "componentType": 5126,
      "count": 5,
      "type": "VEC4"
    }
  ],
  "bufferViews": [
    {
      "buffer": 0,
      "byteOffset": 0,
      "byteLength": 5280,
      "target": 34962
    },
    {
      "buffer": 0,
      "byteOffset": 5280,
      "byteLength": 3520,
      "target": 34962
    },
    {
      "buffer": 0,
      "byteOffset": 8800,
      "byteLength": 3520,
      "target": 34962
    },
    {
      "buffer": 0,
      "byteOffset": 12320,
      "byteLength": 7040,
      "target": 34962
    },
    {
      "buffer": 0,
      "byteOffset": 19360,
      "byteLength": 1320,
      "target": 34963
    },
    {
      "buffer": 0,
      "byteOffset": 20680,
      "byteLength": 448
    },
    {
      "buffer": 0,
      "byteOffset": 21128,
      "byteLength": 20
    },
    {
      "buffer": 0,
      "byteOffset": 21148,
      "byteLength": 60
    },
    {
      "buffer": 0,
      "byteOffset": 21208,
      "byteLength": 80
    },
    {
      "buffer": 0,
      "byteOffset": 21288,
      "byteLength": 80
    },
    {
      "buffer": 0,
      "byteOffset": 21368,
      "byteLength": 80
    },
    {
      "buffer": 0,
      "byteOffset": 21448,
      "byteLength": 80
    },
    {
      "buffer": 0,
      "byteOffset": 21528,
      "byteLength": 80
    },
    {
      "buffer": 0,
      "byteOffset": 21608,
      "byteLength": 20
    },
    {
      "buffer": 0,
      "byteOffset": 21628,
      "byteLength": 180
    },
    {
      "buffer": 0,
      "byteOffset": 21808,
      "byteLength": 240
    },
    {
      "buffer": 0,
      "byteOffset": 22048,
      "byteLength": 240
    },
    {
      "buffer": 0,
      "byteOffset": 22288,
      "byteLength": 240
    },
    {
      "buffer": 0,
      "byteOffset": 22528,
      "byteLength": 240
    },
    {
      "buffer": 0,
      "byteOffset": 22768,
      "byteLength": 240
    },
    {
      "buffer": 0,
      "byteOffset": 23008,
      "byteLength": 20
    },
    {
      "buffer": 0,
      "byteOffset": 23028,
      "byteLength": 60
    },
    {
      "buffer": 0,
      "byteOffset": 23088,
      "byteLength": 80
    },
    {
      "buffer": 0,
      "byteOffset": 23168,
      "byteLength": 80
    },
    {
      "buffer": 0,
      "byteOffset": 23248,
      "byteLength": 80
    },
    {
      "buffer": 0,
      "byteOffset": 23328,
      "byteLength": 80
    },
    {
      "buffer": 0,
      "byteOffset": 23408,
      "byteLength": 80
    },
    {
      "buffer": 0,
      "byteOffset": 23488,
      "byteLength": 20
    },
    {
      "buffer": 0,
      "byteOffset": 23508,
      "byteLength": 60
    },
    {
      "buffer": 0,
      "byteOffset": 23568,
      "byteLength": 80
    },
    {
      "buffer": 0,
      "byteOffset": 23648,
      "byteLength": 80
    },
    {
      "buffer": 0,
      "byteOffset": 23728,
      "byteLength": 80
    },
    {
      "buffer": 0,
      "byteOffset": 23808,
      "byteLength": 80
    },
    {
      "buffer": 0,
      "byteOffset": 23888,
      "byteLength": 80
    }
  ],
  "buffers": [
    {
      "byteLength": 23968,
      "uri": "data:application/octet-stream;base64,"
    }
  ]
}