{
  "asset": {
    "version": "2.0",
    "generator": "Minecraft Character Generator"
  },
  "scene": 0,
  "scenes": [
    {
      "nodes": [
        0
      ]
    }
  ],
  "nodes": [
    {
      "name": "Root",
      "mesh": 0,
      "skin": 0,
      "children": [
        1
      ]
    },
    {
      "name": "hip",
      "translation": [
        0.0,
        0.0,
        0.0
      ],
      "children": [
        2,
        6,
        7
      ]
    },
    {
      "name": "torso",
      "translation": [
        0.0,
        0.72,
        0.0
      ],
      "children": [
        3,
        4,
        5
      ]
    },
    {
      "name": "head",
      "translation": [
        0.0,
        0.72,
        0.0
      ]
    },
    {
      "name": "right_arm",
      "translation": [
        -0.27,
        0.6,
        0.0
      ]
    },
    {
      "name": "left_arm",
      "translation": [
        0.27,
        0.6,
        0.0
      ]
    },
    {
      "name": "right_leg",
      "translation": [
        -0.12,
        0.72,
        0.0
      ]
    },
    {
      "name": "left_leg",
      "translation": [
        0.12,
        0.72,
        0.0
      ]
    }
  ],
  "meshes": [
    {
      "primitives": [
        {
          "attributes": {
            "POSITION": 0,
            "TEXCOORD_0": 1,
            "JOINTS_0": 2,
            "WEIGHTS_0": 3
          },
          "indices": 4,
          "mode": 4,
          "material": 0
        }
      ]
    }
  ],
  "skins": [
    {
      "inverseBindMatrices": 5,
      "joints": [
        1,
        2,
        3,
        4,
        5,
        6,
        7
      ]
    }
  ],
  "materials": [
    {
      "name": "MinecraftSkin",
      "pbrMetallicRoughness": {
        "baseColorTexture": {
          "index": 0
        },
        "metallicFactor": 0.0,
        "roughnessFactor": 1.0
      },
      "alphaMode": "BLEND"
    }
  ],
  "textures": [
    {
      "source": 0
    }
  ],
  "images": [
    {
      "name": "skin",
      "uri": "frozen-roses.png"
    }
  ],
  "animations": [
    {
      "name": "Walk",
      "samplers": [
        {
          "input": 6,
          "output": 7,
          "interpolation": "LINEAR"
        },
        {
          "input": 6,
          "output": 8,
          "interpolation": "LINEAR"
        },
        {
          "input": 6,
          "output": 9,
          "interpolation": "LINEAR"
        },
        {
          "input": 6,
          "output": 10,
          "interpolation": "LINEAR"
        },
        {
          "input": 6,
          "output": 11,
          "interpolation": "LINEAR"
        },
        {
          "input": 6,
          "output": 12,
          "interpolation": "LINEAR"
        },
        {
          "input": 6,
          "output": 13,
          "interpolation": "LINEAR"
        }
      ],
      "channels": [
        {
          "sampler": 0,
          "target": {
            "node": 1,
            "path": "translation"
          }
        },
        {
          "sampler": 1,
          "target": {
            "node": 2,
            "path": "rotation"
          }
        },
        {
          "sampler": 2,
          "target": {
            "node": 3,
            "path": "rotation"
          }
        },
        {
          "sampler": 3,
          "target": {
            "node": 6,
            "path": "rotation"
          }
        },
        {
          "sampler": 4,
          "target": {
            "node": 7,
            "path": "rotation"
          }
        },
        {
          "sampler": 5,
          "target": {
            "node": 4,
            "path": "rotation"
          }
        },
        {
          "sampler": 6,
          "target": {
            "node": 5,
            "path": "rotation"
          }
        }
      ]
    },
    {
      "name": "Idle",
      "samplers": [
        {
          "input": 14,
          "output": 15,
          "interpolation": "CUBICSPLINE"
        },
        {
          "input": 14,
          "output": 16,
          "interpolation": "CUBICSPLINE"
        },
        {
          "input": 14,
          "output": 17,
          "interpolation": "CUBICSPLINE"
        },
        {
          "input": 14,
          "output": 18,
          "interpolation": "CUBICSPLINE"
        },
        {
          "input": 14,
          "output": 19,
          "interpolation": "CUBICSPLINE"
        },
        {
          "input": 14,
          "output": 20,
          "interpolation": "CUBICSPLINE"
        },
        {
          "input": 14,
          "output": 21,
          "interpolation": "CUBICSPLINE"
        }
      ],
      "channels": [
        {
          "sampler": 0,
          "target": {
            "node": 1,
            "path": "translation"
          }
        },
        {
          "sampler": 1,
          "target": {
            "node": 2,
            "path": "rotation"
          }
        },
        {
          "sampler": 2,
          "target": {
            "node": 3,
            "path": "rotation"
          }
        },
        {
          "sampler": 3,
          "target": {
            "node": 6,
            "path": "rotation"
          }
        },
        {
          "sampler": 4,
          "target": {
            "node": 7,
            "path": "rotation"
          }
        },
        {
          "sampler": 5,
          "target": {
            "node": 4,
            "path": "rotation"
          }
        },
        {
          "sampler": 6,
          "target": {
            "node": 5,
            "path": "rotation"
          }
        }
      ]
    },
    {
      "name": "Run",
      "samplers": [
        {
          "input": 22,
          "output": 23,
          "interpolation": "LINEAR"
        },
        {
          "input": 22,
          "output": 24,
          "interpolation": "LINEAR"
        },
        {
          "input": 22,
          "output": 25,
          "interpolation": "LINEAR"
        },
        {
          "input": 22,
          "output": 26,
          "interpolation": "LINEAR"
        },
        {
          "input": 22,
          "output": 27,
          "interpolation": "LINEAR"
        },
        {
          "input": 22,
          "output": 28,
          "interpolation": "LINEAR"
        },
        {
          "input": 22,
          "output": 29,
          "interpolation": "LINEAR"
        }
      ],
      "channels": [
        {
          "sampler": 0,
          "target": {
            "node": 1,
            "path": "translation"
          }
        },
        {
          "sampler": 1,
          "target": {
            "node": 2,
            "path": "rotation"
          }
        },
        {
          "sampler": 2,
          "target": {
            "node": 3,
            "path": "rotation"
          }
        },
        {
          "sampler": 3,
          "target": {
            "node": 6,
            "path": "rotation"
          }
        },
        {
          "sampler": 4,
          "target": {
            "node": 7,
            "path": "rotation"
          }
        },
        {
          "sampler": 5,
          "target": {
            "node": 4,
            "path": "rotation"
          }
        },
        {
          "sampler": 6,
          "target": {
            "node": 5,
            "path": "rotation"
          }
        }
      ]
    },
    {
      "name": "Place",
      "samplers": [
        {
          "input": 30,
          "output": 31,
          "interpolation": "LINEAR"
        },
        {
          "input": 30,
          "output": 32,
          "interpolation": "LINEAR"
        },
        {
          "input": 30,
          "output": 33,
          "interpolation": "LINEAR"
        },
        {
          "input": 30,
          "output": 34,
          "interpolation": "LINEAR"
        },
        {
          "input": 30,
          "output": 35,
          "interpolation": "LINEAR"
        },
        {
          "input": 30,
          "output": 36,
          "interpolation": "LINEAR"
        },
        {
          "input": 30,
          "output": 37,
          "interpolation": "LINEAR"
        }
      ],
      "channels": [
        {
          "sampler": 0,
          "target": {
            "node": 1,
            "path": "translation"
          }
        },
        {
          "sampler": 1,
          "target": {
            "node": 2,
            "path": "rotation"
          }
        },
        {
          "sampler": 2,
          "target": {
            "node": 3,
            "path": "rotation"
          }
        },
        {
          "sampler": 3,
          "target": {
            "node": 6,
            "path": "rotation"
          }
        },
        {
          "sampler": 4,
          "target": {
            "node": 7,
            "path": "rotation"
          }
        },
        {
          "sampler": 5,
          "target": {
            "node": 4,
            "path": "rotation"
          }
        },
        {
          "sampler": 6,
          "target": {
            "node": 5,
            "path": "rotation"
          }
        }
      ]
    },
    {
      "name": "Sneak",
      "samplers": [
        {
          "input": 38,
          "output": 39,
          "interpolation": "LINEAR"
        },
        {
          "input": 38,
          "output": 40,
          "interpolation": "LINEAR"
        },
        {
          "input": 38,
          "output": 41,
          "interpolation": "LINEAR"
        },
        {
          "input": 38,
          "output": 42,
          "interpolation": "LINEAR"
        },
        {
          "input": 38,
          "output": 43,
          "interpolation": "LINEAR"
        },
        {
          "input": 38,
          "output": 44,
          "interpolation": "LINEAR"
        },
        {
          "input": 38,
          "output": 45,
          "interpolation": "LINEAR"
        }
      ],
      "channels": [
        {
          "sampler": 0,
          "target": {
            "node": 1,
            "path": "translation"
          }
        },
        {
          "sampler": 1,
          "target": {
            "node": 2,
            "path": "rotation"
          }
        },
        {
          "sampler": 2,
          "target": {
            "node": 3,
            "path": "rotation"
          }
        },
        {
          "sampler": 3,
          "target": {
            "node": 6,
            "path": "rotation"
          }
        },
        {
          "sampler": 4,
          "target": {
            "node": 7,
            "path": "rotation"
          }
        },
        {
          "sampler": 5,
          "target": {
            "node": 4,
            "path": "rotation"
          }
        },
        {
          "sampler": 6,
          "target": {
            "node": 5,
            "path": "rotation"
          }
        }
      ]
    }
  ],
  "accessors": [
    {
      "bufferView": 0,
      "componentType": 5126,
      "count": 504,
      "type": "VEC3",
      "max": [
        0.42899999022483826,
        1.944000005722046,
        0.2639999985694885
      ],
      "min": [
        -0.42899999022483826,
        -0.035999998450279236,
        -0.2639999985694885
      ]
    },
    {
      "bufferView": 1,
      "componentType": 5126,
      "count": 504,
      "type": "VEC2"
    },
    {
      "bufferView": 2,
      "componentType": 5123,
      "count": 504,
      "type": "VEC4"
    },
    {
      "bufferView": 3,
      "componentType": 5126,
      "count": 504,
      "type": "VEC4"
    },
    {
      "bufferView": 4,
      "componentType": 5123,
      "count": 756,
      "type": "SCALAR"
    },
    {
      "bufferView": 5,
      "componentType": 5126,
      "count": 7,
      "type": "MAT4"
    },
    {
      "bufferView": 6,
      "componentType": 5126,
      "count": 5,
      "type": "SCALAR",
      "max": [
        2.0
      ],
      "min": [
        0.0
      ]
    },
    {
      "bufferView": 7,
      "componentType": 5126,
      "count": 5,
      "type": "VEC3"
    },
    {
      "bufferView": 8,
      "componentType": 5126,
      "count": 5,
      "type": "VEC4"
    },
    {
      "bufferView": 9,
      "componentType": 5126,
      "count": 5,
      "type": "VEC4"
    },
    {
      "bufferView": 10,
      "componentType": 5126,
      "count": 5,
      "type": "VEC4"
    },
    {
      "bufferView": 11,
      "componentType": 5126,
      "count": 5,
      "type": "VEC4"
    },
    {
      "bufferView": 12,
      "componentType": 5126,
      "count": 5,
      "type": "VEC4"
    },
    {
      "bufferView": 13,
      "componentType": 5126,
      "count": 5,
      "type": "VEC4"
    },
    {
      "bufferView": 14,
      "componentType": 5126,
      "count": 5,
      "type": "SCALAR",
      "max": [
        10.0
      ],
      "min": [
        0.0
      ]
    },
    {
      "bufferView": 15,
      "componentType": 5126,
      "count": 15,
      "type": "VEC3"
    },
    {
      "bufferView": 16,
      "componentType": 5126,
      "count": 15,
      "type": "VEC4"
    },
    {
      "bufferView": 17,
      "componentType": 5126,
      "count": 15,
      "type": "VEC4"
    },
    {
      "bufferView": 18,
      "componentType": 5126,
      "count": 15,
      "type": "VEC4"
    },
    {
      "bufferView": 19,
      "componentType": 5126,
      "count": 15,
      "type": "VEC4"
    },
    {
      "bufferView": 20,
      "componentType": 5126,
      "count": 15,
      "type": "VEC4"
    },
    {
      "bufferView": 21,
      "componentType": 5126,
      "count": 15,
      "type": "VEC4"
    },
    {
      "bufferView": 22,
      "componentType": 5126,
      "count": 5,
      "type": "SCALAR",
      "max": [
        2.0
      ],
      "min": [
        0.0
      ]
    },
    {
      "bufferView": 23,
      "componentType": 5126,
      "count": 5,
      "type": "VEC3"
    },
    {
      "bufferView": 24,
      "componentType": 5126,
      "count": 5,
      "type": "VEC4"
    },
    {
      "bufferView": 25,
      "componentType": 5126,
      "count": 5,
      "type": "VEC4"
    },
    {
      "bufferView": 26,
      "componentType": 5126,
      "count": 5,
      "type": "VEC4"
    },
    {
      "bufferView": 27,
      "componentType": 5126,
      "count": 5,
      "type": "VEC4"
    },
    {
      "bufferView": 28,
      "componentType": 5126,
      "count": 5,
      "type": "VEC4"
    },
    {
      "bufferView": 29,
      "componentType": 5126,
      "count": 5,
      "type": "VEC4"
    },
    {
      "bufferView": 30,
      "componentType": 5126,
      "count": 5,
      "type": "SCALAR",
      "max": [
        0.8
      ],
      "min": [
        0.0
      ]
    },
    {
      "bufferView": 31,
      "componentType": 5126,
      "count": 5,
      "type": "VEC3"
    },
    {
      "bufferView": 32,
      "componentType": 5126,
      "count": 5,
      "type": "VEC4"
    },
    {
      "bufferView": 33,
      "componentType": 5126,
      "count": 5,
      "type": "VEC4"
    },
    {
      "bufferView": 34,
      "componentType": 5126,
      "count": 5,
      "type": "VEC4"
    },
    {
      "bufferView": 35,
      "componentType": 5126,
      "count": 5,
      "type": "VEC4"
    },
    {
      "bufferView": 36,
      "componentType": 5126,
      "count": 5,
      "type": "VEC4"
    },
    {
      "bufferView": 37,
      "componentType": 5126,
      "count": 5,
      "type": "VEC4"
    },
    {
      "bufferView": 38,
      "componentType": 5126,
      "count": 2,
      "type": "SCALAR",
      "max": [
        1.0
      ],
      "min": [
        0.0
      ]
    },
    {
      "bufferView": 39,
      "componentType": 5126,
      "count": 2,
      "type": "VEC3"
    },
    {
      "bufferView": 40,
      "componentType": 5126,
      "count": 2,
      "type": "VEC4"
    },
    {
      "bufferView": 41,
      "componentType": 5126,
      "count": 2,
      "type": "VEC4"
    },
    {
      "bufferView": 42,
      "componentType": 5126,
      "count": 2,
      "type": "VEC4"
    },
    {
      "bufferView": 43,
      "componentType": 5126,
      "count": 2,
      "type": "VEC4"
    },
    {
      "bufferView": 44,
      "componentType": 5126,
      "count": 2,
      "type": "VEC4"
    },
    {
      "bufferView": 45,
      "componentType": 5126,
      "count": 2,
      "type": "VEC4"
    }
  ],
  "bufferViews": [
    {
      "buffer": 0,
      "byteOffset": 0,
      "byteLength": 6048,
      "target": 34962
    },
    {
      "buffer": 0,
      "byteOffset": 6048,
      "byteLength": 4032,
      "target": 34962
    },
    {
      "buffer": 0,
      "byteOffset": 10080,
      "byteLength": 4032,
      "target": 34962
    },
    {
      "buffer": 0,
      "byteOffset": 14112,
      "byteLength": 8064,
      "target": 34962
    },
    {
      "buffer": 0,
      "byteOffset": 22176,
      "byteLength": 1512,
      "target": 34963
    },
    {
      "buffer": 0,
      "byteOffset": 23688,
      "byteLength": 448
    },
    {
      "buffer": 0,
      "byteOffset": 24136,
      "byteLength": 20
    },
    {
      "buffer": 0,
      "byteOffset": 24156,
      "byteLength": 60
    },
    {
      "buffer": 0,
      "byteOffset": 24216,
      "byteLength": 80
    },
    {
      "buffer": 0,
      "byteOffset": 24296,
      "byteLength": 80
    },
    {
      "buffer": 0,
      "byteOffset": 24376,
      "byteLength": 80
    },
    {
      "buffer": 0,
      "byteOffset": 24456,
      "byteLength": 80
    },
    {
      "buffer": 0,
      "byteOffset": 24536,
      "byteLength": 80
    },
    {
      "buffer": 0,
      "byteOffset": 24616,
      "byteLength": 80
    },
    {
      "buffer": 0,
      "byteOffset": 24696,
      "byteLength": 20
    },
    {
      "buffer": 0,
      "byteOffset": 24716,
      "byteLength": 180
    },
    {
      "buffer": 0,
      "byteOffset": 24896,
      "byteLength": 240
    },
    {
      "buffer": 0,
      "byteOffset": 25136,
      "byteLength": 240
    },
    {
      "buffer": 0,
      "byteOffset": 25376,
      "byteLength": 240
    },
    {
      "buffer": 0,
      "byteOffset": 25616,
      "byteLength": 240
    },
    {
      "buffer": 0,
      "byteOffset": 25856,
      "byteLength": 240
    },
    {
      "buffer": 0,
      "byteOffset": 26096,
      "byteLength": 240
    },
    {
      "buffer": 0,
      "byteOffset": 26336,
      "byteLength": 20
    },
    {
      "buffer": 0,
      "byteOffset": 26356,
      "byteLength": 60
    },
    {
      "buffer": 0,
      "byteOffset": 26416,
      "byteLength": 80
    },
    {
      "buffer": 0,
      "byteOffset": 26496,
      "byteLength": 80
    },
    {
      "buffer": 0,
      "byteOffset": 26576,
      "byteLength": 80
    },
    {
      "buffer": 0,
      "byteOffset": 26656,
      "byteLength": 80
    },
    {
      "buffer": 0,
      "byteOffset": 26736,
      "byteLength": 80
    },
    {
      "buffer": 0,
      "byteOffset": 26816,
      "byteLength": 80
    },
    {
      "buffer": 0,
      "byteOffset": 26896,
      "byteLength": 20
    },
    {
      "buffer": 0,
      "byteOffset": 26916,
      "byteLength": 60
    },
    {
      "buffer": 0,
      "byteOffset": 26976,
      "byteLength": 80
    },
    {
      "buffer": 0,
      "byteOffset": 27056,
      "byteLength": 80
    },
    {
      "buffer": 0,
      "byteOffset": 27136,
      "byteLength": 80
    },
    {
      "buffer": 0,
      "byteOffset": 27216,
      "byteLength": 80
    },
    {
      "buffer": 0,
      "byteOffset": 27296,
      "byteLength": 80
    },
    {
      "buffer": 0,
      "byteOffset": 27376,
      "byteLength": 80
    },
    {
      "buffer": 0,
      "byteOffset": 27456,
      "byteLength": 8
    },
    {
      "buffer": 0,
      "byteOffset": 27464,
      "byteLength": 24
    },
    {
      "buffer": 0,
      "byteOffset": 27488,
      "byteLength": 32
    },
    {
      "buffer": 0,
      "byteOffset": 27520,
      "byteLength": 32
    },
    {
      "buffer": 0,
      "byteOffset": 27552,
      "byteLength": 32
    },
    {
      "buffer": 0,
      "byteOffset": 27584,
      "byteLength": 32
    },
    {
      "buffer": 0,
      "byteOffset": 27616,
      "byteLength": 32
    },
    {
      "buffer": 0,
      "byteOffset": 27648,
      "byteLength": 32
    }
  ],
  "buffers": [
    {
      "byteLength": 27680,
      "uri": "data:application/octet-stream;base64,"
    }
  ]
}